<svg xmlns="http://www.w3.org/2000/svg" viewBox="0 0 1080 824" font-family="ui-monospace, SFMono-Regular, Menlo, Consolas, monospace" font-size="13" role="img" aria-labelledby="title desc">
<title id="title">Node Section Memory Layout</title><desc id="desc">NodeRecord is a fixed 24-byte flat-array record with inline span and edge range fields.</desc><defs><marker id="arrow" viewBox="0 0 10 10" refX="9" refY="5" markerWidth="7" markerHeight="7" orient="auto-start-reverse"><path d="M 0 0 L 10 5 L 0 10 z" class="arrow-fill"/></marker><style>
      .title { fill:#111827; }.subtitle { fill:#4b5563; }.label { fill:#374151; }.muted { fill:#6b7280; }
      .panel { fill:#ffffff; stroke:#d1d5db; }.surface { fill:#f8fafc; stroke:#9ca3af; }
      .ruler { stroke:#9ca3af; }.ruler-text { fill:#64748b; }.arrow { stroke:#4b5563; }.arrow-fill { fill:#4b5563; }
      .hdr { fill:#2563eb; }.table { fill:#0891b2; }.root { fill:#0d9488; }.source { fill:#059669; }
      .node { fill:#ea580c; }.edge { fill:#0284c7; }.token { fill:#16a34a; }.trivia { fill:#a16207; }
      .diag { fill:#be185d; }.string { fill:#4f46e5; }.raw { fill:#0f766e; }.ext { fill:#9333ea; }
      .pad { fill:#94a3b8; }.bad { fill:#dc2626; }.dark { fill:#111827; }
      @media (prefers-color-scheme: dark) {
        .title { fill:#f8fafc; }.subtitle { fill:#cbd5e1; }.label { fill:#e5e7eb; }.muted { fill:#cbd5e1; }
        .panel { fill:#111827; stroke:#475569; }.surface { fill:#0f172a; stroke:#64748b; }
        .ruler { stroke:#64748b; }.ruler-text { fill:#cbd5e1; }.arrow { stroke:#cbd5e1; }.arrow-fill { fill:#cbd5e1; }
      }
</style></defs>
<rect x="0" y="0" width="1080" height="824" fill="none"/>
<text x="540" y="34" font-size="19" class="title" text-anchor="middle" font-weight="700">Node Section Memory Layout</text>
<text x="540" y="57" font-size="12" class="subtitle" text-anchor="middle">NodeRecord is a fixed 24-byte flat-array record with inline span and edge range fields.</text>
<rect x="44" y="86" width="992" height="164" rx="6" class="surface" opacity="1"/>
<text x="62" y="116" font-size="13" class="label" font-weight="700">SectionRecord memory layout</text>
<text x="62" y="138" font-size="11" class="muted">20-byte section table record; payload offset is buffer-relative and payload starts 8-byte aligned.</text>
<path d="M 82 166 L 942 166" fill="none" class="arrow" stroke-width="1.5"/>
<line x1="82" y1="159" x2="82" y2="175" class="ruler" stroke-width="1"/>
<text x="82" y="154" font-size="8" class="ruler-text" text-anchor="middle">0</text>
<line x1="254" y1="159" x2="254" y2="175" class="ruler" stroke-width="1"/>
<text x="254" y="154" font-size="8" class="ruler-text" text-anchor="middle">4</text>
<line x1="426" y1="159" x2="426" y2="175" class="ruler" stroke-width="1"/>
<text x="426" y="154" font-size="8" class="ruler-text" text-anchor="middle">8</text>
<line x1="598" y1="159" x2="598" y2="175" class="ruler" stroke-width="1"/>
<text x="598" y="154" font-size="8" class="ruler-text" text-anchor="middle">12</text>
<line x1="770" y1="159" x2="770" y2="175" class="ruler" stroke-width="1"/>
<text x="770" y="154" font-size="8" class="ruler-text" text-anchor="middle">16</text>
<line x1="856" y1="159" x2="856" y2="175" class="ruler" stroke-width="1"/>
<text x="856" y="154" font-size="8" class="ruler-text" text-anchor="middle">18</text>
<line x1="899" y1="159" x2="899" y2="175" class="ruler" stroke-width="1"/>
<text x="899" y="154" font-size="8" class="ruler-text" text-anchor="middle">19</text>
<line x1="942" y1="159" x2="942" y2="175" class="ruler" stroke-width="1"/>
<text x="942" y="154" font-size="8" class="ruler-text" text-anchor="middle">20</text>
<rect x="82" y="180" width="86" height="50" rx="3" class="table" opacity="0.86"/>
<text x="125.0" y="201" font-size="10" fill="#fff" text-anchor="middle" font-weight="700">kind</text>
<text x="125.0" y="219" font-size="8" fill="#e5e7eb" text-anchor="middle">3 = nodes</text>
<rect x="168" y="180" width="86" height="50" rx="3" class="table" opacity="0.68"/>
<text x="211.0" y="201" font-size="10" fill="#fff" text-anchor="middle" font-weight="700">flags</text>
<text x="211.0" y="219" font-size="8" fill="#e5e7eb" text-anchor="middle">required</text>
<rect x="254" y="180" width="172" height="50" rx="3" class="hdr" opacity="0.78"/>
<text x="340.0" y="201" font-size="10" fill="#fff" text-anchor="middle" font-weight="700">offset</text>
<text x="340.0" y="219" font-size="8" fill="#e5e7eb" text-anchor="middle">u32 buffer offset</text>
<rect x="426" y="180" width="172" height="50" rx="3" class="hdr" opacity="0.68"/>
<text x="512.0" y="201" font-size="10" fill="#fff" text-anchor="middle" font-weight="700">byte_len</text>
<text x="512.0" y="219" font-size="8" fill="#e5e7eb" text-anchor="middle">count * record_size</text>
<rect x="598" y="180" width="172" height="50" rx="3" class="hdr" opacity="0.78"/>
<text x="684.0" y="201" font-size="10" fill="#fff" text-anchor="middle" font-weight="700">count</text>
<text x="684.0" y="219" font-size="8" fill="#e5e7eb" text-anchor="middle">u32 records</text>
<rect x="770" y="180" width="86" height="50" rx="3" class="table" opacity="0.72"/>
<text x="813.0" y="201" font-size="10" fill="#fff" text-anchor="middle" font-weight="700">rec_size</text>
<text x="813.0" y="219" font-size="8" fill="#e5e7eb" text-anchor="middle">24 bytes</text>
<rect x="856" y="180" width="43" height="50" rx="3" class="table" opacity="0.58"/>
<text x="877.5" y="201" font-size="9" fill="#fff" text-anchor="middle" font-weight="700">align</text>
<text x="877.5" y="219" font-size="8" fill="#e5e7eb" text-anchor="middle">8</text>
<rect x="899" y="180" width="43" height="50" rx="3" class="pad" opacity="0.58"/>
<text x="920.5" y="201" font-size="9" fill="#fff" text-anchor="middle" font-weight="700">res</text>
<text x="920.5" y="219" font-size="8" fill="#e5e7eb" text-anchor="middle">0</text>
<rect x="44" y="286" width="992" height="206" rx="6" class="panel" opacity="1"/>
<text x="62" y="316" font-size="13" class="label" font-weight="700">NodeRecord</text>
<text x="62" y="338" font-size="11" class="muted">NodeId is the array index; fields are naturally 4-byte aligned.</text>
<path d="M 82 372 L 970 372" fill="none" class="arrow" stroke-width="1.5"/>
<line x1="82" y1="365" x2="82" y2="381" class="ruler" stroke-width="1"/>
<text x="82" y="360" font-size="8" class="ruler-text" text-anchor="middle">0</text>
<line x1="230" y1="365" x2="230" y2="381" class="ruler" stroke-width="1"/>
<text x="230" y="360" font-size="8" class="ruler-text" text-anchor="middle">4</text>
<line x1="378" y1="365" x2="378" y2="381" class="ruler" stroke-width="1"/>
<text x="378" y="360" font-size="8" class="ruler-text" text-anchor="middle">8</text>
<line x1="526" y1="365" x2="526" y2="381" class="ruler" stroke-width="1"/>
<text x="526" y="360" font-size="8" class="ruler-text" text-anchor="middle">12</text>
<line x1="674" y1="365" x2="674" y2="381" class="ruler" stroke-width="1"/>
<text x="674" y="360" font-size="8" class="ruler-text" text-anchor="middle">16</text>
<line x1="822" y1="365" x2="822" y2="381" class="ruler" stroke-width="1"/>
<text x="822" y="360" font-size="8" class="ruler-text" text-anchor="middle">20</text>
<line x1="970" y1="365" x2="970" y2="381" class="ruler" stroke-width="1"/>
<text x="970" y="360" font-size="8" class="ruler-text" text-anchor="middle">24</text>
<rect x="82" y="386" width="74" height="58" rx="3" class="node" opacity="0.86"/>
<text x="119.0" y="407" font-size="9" fill="#fff" text-anchor="middle" font-weight="700">kind</text>
<text x="119.0" y="425" font-size="8" fill="#e5e7eb" text-anchor="middle">u16</text>
<rect x="156" y="386" width="74" height="58" rx="3" class="node" opacity="0.66"/>
<text x="193.0" y="407" font-size="9" fill="#fff" text-anchor="middle" font-weight="700">flags</text>
<text x="193.0" y="425" font-size="8" fill="#e5e7eb" text-anchor="middle">u16</text>
<rect x="230" y="386" width="148" height="58" rx="3" class="source" opacity="0.72"/>
<text x="304.0" y="407" font-size="10" fill="#fff" text-anchor="middle" font-weight="700">span_start</text>
<text x="304.0" y="425" font-size="8" fill="#e5e7eb" text-anchor="middle">u32</text>
<rect x="378" y="386" width="148" height="58" rx="3" class="source" opacity="0.84"/>
<text x="452.0" y="407" font-size="10" fill="#fff" text-anchor="middle" font-weight="700">span_end</text>
<text x="452.0" y="425" font-size="8" fill="#e5e7eb" text-anchor="middle">u32</text>
<rect x="526" y="386" width="148" height="58" rx="3" class="edge" opacity="0.76"/>
<text x="600.0" y="407" font-size="10" fill="#fff" text-anchor="middle" font-weight="700">first_child</text>
<text x="600.0" y="425" font-size="8" fill="#e5e7eb" text-anchor="middle">u32 edge</text>
<rect x="674" y="386" width="148" height="58" rx="3" class="edge" opacity="0.62"/>
<text x="748.0" y="407" font-size="10" fill="#fff" text-anchor="middle" font-weight="700">child_count</text>
<text x="748.0" y="425" font-size="8" fill="#e5e7eb" text-anchor="middle">u32</text>
<rect x="822" y="386" width="148" height="58" rx="3" class="ext" opacity="0.76"/>
<text x="896.0" y="407" font-size="10" fill="#fff" text-anchor="middle" font-weight="700">data_ref</text>
<text x="896.0" y="425" font-size="8" fill="#e5e7eb" text-anchor="middle">u32</text>
<rect x="44" y="536" width="992" height="132" rx="6" class="panel" opacity="1"/>
<text x="62" y="566" font-size="13" class="label" font-weight="700">Node outgoing references</text>
<text x="62" y="588" font-size="11" class="muted">Children live in edges[first_child..first_child+child_count]; data_ref points into extended_data when present.</text>
<rect x="90" y="620" width="250" height="36" rx="4" class="edge" opacity="0.74"/>
<text x="215" y="643" font-size="8.2" fill="#fff" text-anchor="middle" font-weight="700">edge range -&gt; edges</text>
<rect x="390" y="620" width="250" height="36" rx="4" class="source" opacity="0.74"/>
<text x="515" y="643" font-size="8.2" fill="#fff" text-anchor="middle" font-weight="700">span -&gt; source context</text>
<rect x="690" y="620" width="250" height="36" rx="4" class="ext" opacity="0.74"/>
<text x="815" y="643" font-size="8.2" fill="#fff" text-anchor="middle" font-weight="700">data_ref -&gt; extended_data</text>
<rect x="44" y="686" width="992" height="106" rx="6" class="surface" opacity="1"/>
<text x="62" y="716" font-size="13" class="label" font-weight="700">Alignment / decoder rules</text>
<rect x="78" y="745" width="206" height="34" rx="4" class="source" opacity="0.72"/>
<text x="181" y="767" font-size="8.5" fill="#fff" text-anchor="middle" font-weight="700">span inline in record</text>
<rect x="316" y="745" width="206" height="34" rx="4" class="edge" opacity="0.72"/>
<text x="419" y="767" font-size="8.5" fill="#fff" text-anchor="middle" font-weight="700">children are edge ranges</text>
<rect x="554" y="745" width="206" height="34" rx="4" class="ext" opacity="0.72"/>
<text x="657" y="767" font-size="8.5" fill="#fff" text-anchor="middle" font-weight="700">data_ref none sentinel</text>
<rect x="792" y="745" width="206" height="34" rx="4" class="bad" opacity="0.72"/>
<text x="895" y="767" font-size="8.5" fill="#fff" text-anchor="middle" font-weight="700">unknown SyntaxKind reject</text>
</svg>
