<svg xmlns="http://www.w3.org/2000/svg" viewBox="0 0 1080 1070" font-family="ui-monospace, SFMono-Regular, Menlo, Consolas, monospace" font-size="13" role="img" aria-labelledby="title desc">
<title id="title">Token and Trivia Memory Layout</title><desc id="desc">Token records carry source spans and trivia ranges; trivia is a separate fixed-record section.</desc><defs><marker id="arrow" viewBox="0 0 10 10" refX="9" refY="5" markerWidth="7" markerHeight="7" orient="auto-start-reverse"><path d="M 0 0 L 10 5 L 0 10 z" class="arrow-fill"/></marker><style>
      .title { fill:#111827; }.subtitle { fill:#4b5563; }.label { fill:#374151; }.muted { fill:#6b7280; }
      .panel { fill:#ffffff; stroke:#d1d5db; }.surface { fill:#f8fafc; stroke:#9ca3af; }
      .ruler { stroke:#9ca3af; }.ruler-text { fill:#64748b; }.arrow { stroke:#4b5563; }.arrow-fill { fill:#4b5563; }
      .hdr { fill:#2563eb; }.table { fill:#0891b2; }.root { fill:#0d9488; }.source { fill:#059669; }
      .node { fill:#ea580c; }.edge { fill:#0284c7; }.token { fill:#16a34a; }.trivia { fill:#a16207; }
      .diag { fill:#be185d; }.string { fill:#4f46e5; }.raw { fill:#0f766e; }.ext { fill:#9333ea; }
      .pad { fill:#94a3b8; }.bad { fill:#dc2626; }.dark { fill:#111827; }
      @media (prefers-color-scheme: dark) {
        .title { fill:#f8fafc; }.subtitle { fill:#cbd5e1; }.label { fill:#e5e7eb; }.muted { fill:#cbd5e1; }
        .panel { fill:#111827; stroke:#475569; }.surface { fill:#0f172a; stroke:#64748b; }
        .ruler { stroke:#64748b; }.ruler-text { fill:#cbd5e1; }.arrow { stroke:#cbd5e1; }.arrow-fill { fill:#cbd5e1; }
      }
</style></defs>
<rect x="0" y="0" width="1080" height="1070" fill="none"/>
<text x="540" y="34" font-size="19" class="title" text-anchor="middle" font-weight="700">Token and Trivia Memory Layout</text>
<text x="540" y="57" font-size="12" class="subtitle" text-anchor="middle">Token records carry source spans and trivia ranges; trivia is a separate fixed-record section.</text>
<rect x="44" y="86" width="992" height="84" rx="6" class="surface" opacity="1"/>
<text x="62" y="116" font-size="13" class="label" font-weight="700">Token and Trivia sections</text>
<text x="62" y="138" font-size="11" class="muted">TokenRecord is 36 bytes with a reserved tail; TriviaRecord is 16 bytes and optional.</text>
<rect x="44" y="202" width="992" height="164" rx="6" class="surface" opacity="1"/>
<text x="62" y="232" font-size="13" class="label" font-weight="700">SectionRecord memory layout</text>
<text x="62" y="254" font-size="11" class="muted">20-byte section table record; payload offset is buffer-relative and payload starts 8-byte aligned.</text>
<path d="M 82 282 L 942 282" fill="none" class="arrow" stroke-width="1.5"/>
<line x1="82" y1="275" x2="82" y2="291" class="ruler" stroke-width="1"/>
<text x="82" y="270" font-size="8" class="ruler-text" text-anchor="middle">0</text>
<line x1="254" y1="275" x2="254" y2="291" class="ruler" stroke-width="1"/>
<text x="254" y="270" font-size="8" class="ruler-text" text-anchor="middle">4</text>
<line x1="426" y1="275" x2="426" y2="291" class="ruler" stroke-width="1"/>
<text x="426" y="270" font-size="8" class="ruler-text" text-anchor="middle">8</text>
<line x1="598" y1="275" x2="598" y2="291" class="ruler" stroke-width="1"/>
<text x="598" y="270" font-size="8" class="ruler-text" text-anchor="middle">12</text>
<line x1="770" y1="275" x2="770" y2="291" class="ruler" stroke-width="1"/>
<text x="770" y="270" font-size="8" class="ruler-text" text-anchor="middle">16</text>
<line x1="856" y1="275" x2="856" y2="291" class="ruler" stroke-width="1"/>
<text x="856" y="270" font-size="8" class="ruler-text" text-anchor="middle">18</text>
<line x1="899" y1="275" x2="899" y2="291" class="ruler" stroke-width="1"/>
<text x="899" y="270" font-size="8" class="ruler-text" text-anchor="middle">19</text>
<line x1="942" y1="275" x2="942" y2="291" class="ruler" stroke-width="1"/>
<text x="942" y="270" font-size="8" class="ruler-text" text-anchor="middle">20</text>
<rect x="82" y="296" width="86" height="50" rx="3" class="table" opacity="0.86"/>
<text x="125.0" y="317" font-size="10" fill="#fff" text-anchor="middle" font-weight="700">kind</text>
<text x="125.0" y="335" font-size="8" fill="#e5e7eb" text-anchor="middle">5 = tokens</text>
<rect x="168" y="296" width="86" height="50" rx="3" class="table" opacity="0.68"/>
<text x="211.0" y="317" font-size="10" fill="#fff" text-anchor="middle" font-weight="700">flags</text>
<text x="211.0" y="335" font-size="8" fill="#e5e7eb" text-anchor="middle">required</text>
<rect x="254" y="296" width="172" height="50" rx="3" class="hdr" opacity="0.78"/>
<text x="340.0" y="317" font-size="10" fill="#fff" text-anchor="middle" font-weight="700">offset</text>
<text x="340.0" y="335" font-size="8" fill="#e5e7eb" text-anchor="middle">u32 buffer offset</text>
<rect x="426" y="296" width="172" height="50" rx="3" class="hdr" opacity="0.68"/>
<text x="512.0" y="317" font-size="10" fill="#fff" text-anchor="middle" font-weight="700">byte_len</text>
<text x="512.0" y="335" font-size="8" fill="#e5e7eb" text-anchor="middle">count * record_size</text>
<rect x="598" y="296" width="172" height="50" rx="3" class="hdr" opacity="0.78"/>
<text x="684.0" y="317" font-size="10" fill="#fff" text-anchor="middle" font-weight="700">count</text>
<text x="684.0" y="335" font-size="8" fill="#e5e7eb" text-anchor="middle">u32 records</text>
<rect x="770" y="296" width="86" height="50" rx="3" class="table" opacity="0.72"/>
<text x="813.0" y="317" font-size="10" fill="#fff" text-anchor="middle" font-weight="700">rec_size</text>
<text x="813.0" y="335" font-size="8" fill="#e5e7eb" text-anchor="middle">36 bytes</text>
<rect x="856" y="296" width="43" height="50" rx="3" class="table" opacity="0.58"/>
<text x="877.5" y="317" font-size="9" fill="#fff" text-anchor="middle" font-weight="700">align</text>
<text x="877.5" y="335" font-size="8" fill="#e5e7eb" text-anchor="middle">8</text>
<rect x="899" y="296" width="43" height="50" rx="3" class="pad" opacity="0.58"/>
<text x="920.5" y="317" font-size="9" fill="#fff" text-anchor="middle" font-weight="700">res</text>
<text x="920.5" y="335" font-size="8" fill="#e5e7eb" text-anchor="middle">0</text>
<rect x="44" y="402" width="992" height="190" rx="6" class="panel" opacity="1"/>
<text x="62" y="432" font-size="13" class="label" font-weight="700">TokenRecord</text>
<text x="62" y="454" font-size="11" class="muted">TokenId is the array index; trivia ranges are inline counts into the trivia section.</text>
<path d="M 82 488 L 1018 488" fill="none" class="arrow" stroke-width="1.5"/>
<line x1="82" y1="481" x2="82" y2="497" class="ruler" stroke-width="1"/>
<text x="82" y="476" font-size="8" class="ruler-text" text-anchor="middle">0</text>
<line x1="186" y1="481" x2="186" y2="497" class="ruler" stroke-width="1"/>
<text x="186" y="476" font-size="8" class="ruler-text" text-anchor="middle">4</text>
<line x1="290" y1="481" x2="290" y2="497" class="ruler" stroke-width="1"/>
<text x="290" y="476" font-size="8" class="ruler-text" text-anchor="middle">8</text>
<line x1="394" y1="481" x2="394" y2="497" class="ruler" stroke-width="1"/>
<text x="394" y="476" font-size="8" class="ruler-text" text-anchor="middle">12</text>
<line x1="498" y1="481" x2="498" y2="497" class="ruler" stroke-width="1"/>
<text x="498" y="476" font-size="8" class="ruler-text" text-anchor="middle">16</text>
<line x1="602" y1="481" x2="602" y2="497" class="ruler" stroke-width="1"/>
<text x="602" y="476" font-size="8" class="ruler-text" text-anchor="middle">20</text>
<line x1="706" y1="481" x2="706" y2="497" class="ruler" stroke-width="1"/>
<text x="706" y="476" font-size="8" class="ruler-text" text-anchor="middle">24</text>
<line x1="810" y1="481" x2="810" y2="497" class="ruler" stroke-width="1"/>
<text x="810" y="476" font-size="8" class="ruler-text" text-anchor="middle">28</text>
<line x1="914" y1="481" x2="914" y2="497" class="ruler" stroke-width="1"/>
<text x="914" y="476" font-size="8" class="ruler-text" text-anchor="middle">32</text>
<line x1="1018" y1="481" x2="1018" y2="497" class="ruler" stroke-width="1"/>
<text x="1018" y="476" font-size="8" class="ruler-text" text-anchor="middle">36</text>
<rect x="82" y="502" width="52" height="58" rx="3" class="token" opacity="0.86"/>
<text x="108.0" y="523" font-size="9" fill="#fff" text-anchor="middle" font-weight="700">kind</text>
<text x="108.0" y="541" font-size="8" fill="#e5e7eb" text-anchor="middle">u16</text>
<rect x="134" y="502" width="52" height="58" rx="3" class="token" opacity="0.62"/>
<text x="160.0" y="523" font-size="9" fill="#fff" text-anchor="middle" font-weight="700">flags</text>
<text x="160.0" y="541" font-size="8" fill="#e5e7eb" text-anchor="middle">u16</text>
<rect x="186" y="502" width="104" height="58" rx="3" class="source" opacity="0.74"/>
<text x="238.0" y="523" font-size="10" fill="#fff" text-anchor="middle" font-weight="700">span_start</text>
<text x="238.0" y="541" font-size="8" fill="#e5e7eb" text-anchor="middle">u32</text>
<rect x="290" y="502" width="104" height="58" rx="3" class="source" opacity="0.84"/>
<text x="342.0" y="523" font-size="10" fill="#fff" text-anchor="middle" font-weight="700">span_end</text>
<text x="342.0" y="541" font-size="8" fill="#e5e7eb" text-anchor="middle">u32</text>
<rect x="394" y="502" width="104" height="58" rx="3" class="source" opacity="0.62"/>
<text x="446.0" y="523" font-size="10" fill="#fff" text-anchor="middle" font-weight="700">source_id</text>
<text x="446.0" y="541" font-size="8" fill="#e5e7eb" text-anchor="middle">u32</text>
<rect x="498" y="502" width="104" height="58" rx="3" class="trivia" opacity="0.78"/>
<text x="550.0" y="523" font-size="10" fill="#fff" text-anchor="middle" font-weight="700">lead_start</text>
<text x="550.0" y="541" font-size="8" fill="#e5e7eb" text-anchor="middle">u32</text>
<rect x="602" y="502" width="104" height="58" rx="3" class="trivia" opacity="0.62"/>
<text x="654.0" y="523" font-size="10" fill="#fff" text-anchor="middle" font-weight="700">lead_count</text>
<text x="654.0" y="541" font-size="8" fill="#e5e7eb" text-anchor="middle">u32</text>
<rect x="706" y="502" width="104" height="58" rx="3" class="trivia" opacity="0.78"/>
<text x="758.0" y="523" font-size="10" fill="#fff" text-anchor="middle" font-weight="700">trail_start</text>
<text x="758.0" y="541" font-size="8" fill="#e5e7eb" text-anchor="middle">u32</text>
<rect x="810" y="502" width="104" height="58" rx="3" class="trivia" opacity="0.62"/>
<text x="862.0" y="523" font-size="10" fill="#fff" text-anchor="middle" font-weight="700">trail_count</text>
<text x="862.0" y="541" font-size="8" fill="#e5e7eb" text-anchor="middle">u32</text>
<rect x="914" y="502" width="104" height="58" rx="3" class="pad" opacity="0.58"/>
<text x="966.0" y="523" font-size="10" fill="#fff" text-anchor="middle" font-weight="700">reserved</text>
<text x="966.0" y="541" font-size="8" fill="#e5e7eb" text-anchor="middle">u32 = 0</text>
<rect x="44" y="606" width="992" height="164" rx="6" class="surface" opacity="1"/>
<text x="62" y="636" font-size="13" class="label" font-weight="700">SectionRecord memory layout</text>
<text x="62" y="658" font-size="11" class="muted">20-byte section table record; payload offset is buffer-relative and payload starts 8-byte aligned.</text>
<path d="M 82 686 L 942 686" fill="none" class="arrow" stroke-width="1.5"/>
<line x1="82" y1="679" x2="82" y2="695" class="ruler" stroke-width="1"/>
<text x="82" y="674" font-size="8" class="ruler-text" text-anchor="middle">0</text>
<line x1="254" y1="679" x2="254" y2="695" class="ruler" stroke-width="1"/>
<text x="254" y="674" font-size="8" class="ruler-text" text-anchor="middle">4</text>
<line x1="426" y1="679" x2="426" y2="695" class="ruler" stroke-width="1"/>
<text x="426" y="674" font-size="8" class="ruler-text" text-anchor="middle">8</text>
<line x1="598" y1="679" x2="598" y2="695" class="ruler" stroke-width="1"/>
<text x="598" y="674" font-size="8" class="ruler-text" text-anchor="middle">12</text>
<line x1="770" y1="679" x2="770" y2="695" class="ruler" stroke-width="1"/>
<text x="770" y="674" font-size="8" class="ruler-text" text-anchor="middle">16</text>
<line x1="856" y1="679" x2="856" y2="695" class="ruler" stroke-width="1"/>
<text x="856" y="674" font-size="8" class="ruler-text" text-anchor="middle">18</text>
<line x1="899" y1="679" x2="899" y2="695" class="ruler" stroke-width="1"/>
<text x="899" y="674" font-size="8" class="ruler-text" text-anchor="middle">19</text>
<line x1="942" y1="679" x2="942" y2="695" class="ruler" stroke-width="1"/>
<text x="942" y="674" font-size="8" class="ruler-text" text-anchor="middle">20</text>
<rect x="82" y="700" width="86" height="50" rx="3" class="table" opacity="0.86"/>
<text x="125.0" y="721" font-size="10" fill="#fff" text-anchor="middle" font-weight="700">kind</text>
<text x="125.0" y="739" font-size="8" fill="#e5e7eb" text-anchor="middle">6 = trivia</text>
<rect x="168" y="700" width="86" height="50" rx="3" class="table" opacity="0.68"/>
<text x="211.0" y="721" font-size="10" fill="#fff" text-anchor="middle" font-weight="700">flags</text>
<text x="211.0" y="739" font-size="8" fill="#e5e7eb" text-anchor="middle">optional</text>
<rect x="254" y="700" width="172" height="50" rx="3" class="hdr" opacity="0.78"/>
<text x="340.0" y="721" font-size="10" fill="#fff" text-anchor="middle" font-weight="700">offset</text>
<text x="340.0" y="739" font-size="8" fill="#e5e7eb" text-anchor="middle">u32 buffer offset</text>
<rect x="426" y="700" width="172" height="50" rx="3" class="hdr" opacity="0.68"/>
<text x="512.0" y="721" font-size="10" fill="#fff" text-anchor="middle" font-weight="700">byte_len</text>
<text x="512.0" y="739" font-size="8" fill="#e5e7eb" text-anchor="middle">count * record_size</text>
<rect x="598" y="700" width="172" height="50" rx="3" class="hdr" opacity="0.78"/>
<text x="684.0" y="721" font-size="10" fill="#fff" text-anchor="middle" font-weight="700">count</text>
<text x="684.0" y="739" font-size="8" fill="#e5e7eb" text-anchor="middle">u32 records</text>
<rect x="770" y="700" width="86" height="50" rx="3" class="table" opacity="0.72"/>
<text x="813.0" y="721" font-size="10" fill="#fff" text-anchor="middle" font-weight="700">rec_size</text>
<text x="813.0" y="739" font-size="8" fill="#e5e7eb" text-anchor="middle">16 bytes</text>
<rect x="856" y="700" width="43" height="50" rx="3" class="table" opacity="0.58"/>
<text x="877.5" y="721" font-size="9" fill="#fff" text-anchor="middle" font-weight="700">align</text>
<text x="877.5" y="739" font-size="8" fill="#e5e7eb" text-anchor="middle">8</text>
<rect x="899" y="700" width="43" height="50" rx="3" class="pad" opacity="0.58"/>
<text x="920.5" y="721" font-size="9" fill="#fff" text-anchor="middle" font-weight="700">res</text>
<text x="920.5" y="739" font-size="8" fill="#e5e7eb" text-anchor="middle">0</text>
<rect x="44" y="806" width="992" height="176" rx="6" class="panel" opacity="1"/>
<text x="62" y="836" font-size="13" class="label" font-weight="700">TriviaRecord</text>
<text x="62" y="858" font-size="11" class="muted">TriviaId is the array index; include_trivia=false keeps token layout and sets counts to zero.</text>
<path d="M 82 892 L 978 892" fill="none" class="arrow" stroke-width="1.5"/>
<line x1="82" y1="885" x2="82" y2="901" class="ruler" stroke-width="1"/>
<text x="82" y="880" font-size="8" class="ruler-text" text-anchor="middle">0</text>
<line x1="306" y1="885" x2="306" y2="901" class="ruler" stroke-width="1"/>
<text x="306" y="880" font-size="8" class="ruler-text" text-anchor="middle">4</text>
<line x1="530" y1="885" x2="530" y2="901" class="ruler" stroke-width="1"/>
<text x="530" y="880" font-size="8" class="ruler-text" text-anchor="middle">8</text>
<line x1="754" y1="885" x2="754" y2="901" class="ruler" stroke-width="1"/>
<text x="754" y="880" font-size="8" class="ruler-text" text-anchor="middle">12</text>
<line x1="978" y1="885" x2="978" y2="901" class="ruler" stroke-width="1"/>
<text x="978" y="880" font-size="8" class="ruler-text" text-anchor="middle">16</text>
<rect x="82" y="906" width="112" height="58" rx="3" class="trivia" opacity="0.86"/>
<text x="138.0" y="927" font-size="10" fill="#fff" text-anchor="middle" font-weight="700">kind</text>
<text x="138.0" y="945" font-size="8" fill="#e5e7eb" text-anchor="middle">u16</text>
<rect x="194" y="906" width="112" height="58" rx="3" class="trivia" opacity="0.62"/>
<text x="250.0" y="927" font-size="10" fill="#fff" text-anchor="middle" font-weight="700">flags</text>
<text x="250.0" y="945" font-size="8" fill="#e5e7eb" text-anchor="middle">u16</text>
<rect x="306" y="906" width="224" height="58" rx="3" class="source" opacity="0.74"/>
<text x="418.0" y="927" font-size="10" fill="#fff" text-anchor="middle" font-weight="700">span_start</text>
<text x="418.0" y="945" font-size="8" fill="#e5e7eb" text-anchor="middle">u32</text>
<rect x="530" y="906" width="224" height="58" rx="3" class="source" opacity="0.84"/>
<text x="642.0" y="927" font-size="10" fill="#fff" text-anchor="middle" font-weight="700">span_end</text>
<text x="642.0" y="945" font-size="8" fill="#e5e7eb" text-anchor="middle">u32</text>
<rect x="754" y="906" width="224" height="58" rx="3" class="source" opacity="0.62"/>
<text x="866.0" y="927" font-size="10" fill="#fff" text-anchor="middle" font-weight="700">source_id</text>
<text x="866.0" y="945" font-size="8" fill="#e5e7eb" text-anchor="middle">u32</text>
</svg>
