<svg xmlns="http://www.w3.org/2000/svg" viewBox="0 0 1080 848" font-family="ui-monospace, SFMono-Regular, Menlo, Consolas, monospace" font-size="13" role="img" aria-labelledby="title desc">
<title id="title">Source Text Data Memory Layout</title><desc id="desc">Optional raw source bytes section referenced by SourceTextRef records.</desc><defs><marker id="arrow" viewBox="0 0 10 10" refX="9" refY="5" markerWidth="7" markerHeight="7" orient="auto-start-reverse"><path d="M 0 0 L 10 5 L 0 10 z" class="arrow-fill"/></marker><style>
      .title { fill:#111827; }.subtitle { fill:#4b5563; }.label { fill:#374151; }.muted { fill:#6b7280; }
      .panel { fill:#ffffff; stroke:#d1d5db; }.surface { fill:#f8fafc; stroke:#9ca3af; }
      .ruler { stroke:#9ca3af; }.ruler-text { fill:#64748b; }.arrow { stroke:#4b5563; }.arrow-fill { fill:#4b5563; }
      .hdr { fill:#2563eb; }.table { fill:#0891b2; }.root { fill:#0d9488; }.source { fill:#059669; }
      .node { fill:#ea580c; }.edge { fill:#0284c7; }.token { fill:#16a34a; }.trivia { fill:#a16207; }
      .diag { fill:#be185d; }.string { fill:#4f46e5; }.raw { fill:#0f766e; }.ext { fill:#9333ea; }
      .pad { fill:#94a3b8; }.bad { fill:#dc2626; }.dark { fill:#111827; }
      @media (prefers-color-scheme: dark) {
        .title { fill:#f8fafc; }.subtitle { fill:#cbd5e1; }.label { fill:#e5e7eb; }.muted { fill:#cbd5e1; }
        .panel { fill:#111827; stroke:#475569; }.surface { fill:#0f172a; stroke:#64748b; }
        .ruler { stroke:#64748b; }.ruler-text { fill:#cbd5e1; }.arrow { stroke:#cbd5e1; }.arrow-fill { fill:#cbd5e1; }
      }
</style></defs>
<rect x="0" y="0" width="1080" height="848" fill="none"/>
<text x="540" y="34" font-size="19" class="title" text-anchor="middle" font-weight="700">Source Text Data Memory Layout</text>
<text x="540" y="57" font-size="12" class="subtitle" text-anchor="middle">Optional raw source bytes section referenced by SourceTextRef records.</text>
<rect x="44" y="86" width="992" height="164" rx="6" class="surface" opacity="1"/>
<text x="62" y="116" font-size="13" class="label" font-weight="700">SectionRecord memory layout</text>
<text x="62" y="138" font-size="11" class="muted">20-byte section table record; payload offset is buffer-relative and payload starts 8-byte aligned.</text>
<path d="M 82 166 L 942 166" fill="none" class="arrow" stroke-width="1.5"/>
<line x1="82" y1="159" x2="82" y2="175" class="ruler" stroke-width="1"/>
<text x="82" y="154" font-size="8" class="ruler-text" text-anchor="middle">0</text>
<line x1="254" y1="159" x2="254" y2="175" class="ruler" stroke-width="1"/>
<text x="254" y="154" font-size="8" class="ruler-text" text-anchor="middle">4</text>
<line x1="426" y1="159" x2="426" y2="175" class="ruler" stroke-width="1"/>
<text x="426" y="154" font-size="8" class="ruler-text" text-anchor="middle">8</text>
<line x1="598" y1="159" x2="598" y2="175" class="ruler" stroke-width="1"/>
<text x="598" y="154" font-size="8" class="ruler-text" text-anchor="middle">12</text>
<line x1="770" y1="159" x2="770" y2="175" class="ruler" stroke-width="1"/>
<text x="770" y="154" font-size="8" class="ruler-text" text-anchor="middle">16</text>
<line x1="856" y1="159" x2="856" y2="175" class="ruler" stroke-width="1"/>
<text x="856" y="154" font-size="8" class="ruler-text" text-anchor="middle">18</text>
<line x1="899" y1="159" x2="899" y2="175" class="ruler" stroke-width="1"/>
<text x="899" y="154" font-size="8" class="ruler-text" text-anchor="middle">19</text>
<line x1="942" y1="159" x2="942" y2="175" class="ruler" stroke-width="1"/>
<text x="942" y="154" font-size="8" class="ruler-text" text-anchor="middle">20</text>
<rect x="82" y="180" width="86" height="50" rx="3" class="table" opacity="0.86"/>
<text x="125.0" y="201" font-size="10" fill="#fff" text-anchor="middle" font-weight="700">kind</text>
<text x="125.0" y="219" font-size="8" fill="#e5e7eb" text-anchor="middle">11 = src_text</text>
<rect x="168" y="180" width="86" height="50" rx="3" class="table" opacity="0.68"/>
<text x="211.0" y="201" font-size="10" fill="#fff" text-anchor="middle" font-weight="700">flags</text>
<text x="211.0" y="219" font-size="8" fill="#e5e7eb" text-anchor="middle">optional</text>
<rect x="254" y="180" width="172" height="50" rx="3" class="hdr" opacity="0.78"/>
<text x="340.0" y="201" font-size="10" fill="#fff" text-anchor="middle" font-weight="700">offset</text>
<text x="340.0" y="219" font-size="8" fill="#e5e7eb" text-anchor="middle">u32 buffer offset</text>
<rect x="426" y="180" width="172" height="50" rx="3" class="hdr" opacity="0.68"/>
<text x="512.0" y="201" font-size="10" fill="#fff" text-anchor="middle" font-weight="700">byte_len</text>
<text x="512.0" y="219" font-size="8" fill="#e5e7eb" text-anchor="middle">raw byte_len</text>
<rect x="598" y="180" width="172" height="50" rx="3" class="hdr" opacity="0.78"/>
<text x="684.0" y="201" font-size="10" fill="#fff" text-anchor="middle" font-weight="700">count</text>
<text x="684.0" y="219" font-size="8" fill="#e5e7eb" text-anchor="middle">u32 records</text>
<rect x="770" y="180" width="86" height="50" rx="3" class="table" opacity="0.72"/>
<text x="813.0" y="201" font-size="10" fill="#fff" text-anchor="middle" font-weight="700">rec_size</text>
<text x="813.0" y="219" font-size="8" fill="#e5e7eb" text-anchor="middle">0 raw bytes</text>
<rect x="856" y="180" width="43" height="50" rx="3" class="table" opacity="0.58"/>
<text x="877.5" y="201" font-size="9" fill="#fff" text-anchor="middle" font-weight="700">align</text>
<text x="877.5" y="219" font-size="8" fill="#e5e7eb" text-anchor="middle">8</text>
<rect x="899" y="180" width="43" height="50" rx="3" class="pad" opacity="0.58"/>
<text x="920.5" y="201" font-size="9" fill="#fff" text-anchor="middle" font-weight="700">res</text>
<text x="920.5" y="219" font-size="8" fill="#e5e7eb" text-anchor="middle">0</text>
<rect x="44" y="286" width="460" height="224" rx="6" class="panel" opacity="1"/>
<text x="62" y="316" font-size="13" class="label" font-weight="700">SourceTextRef</text>
<text x="62" y="338" font-size="11" class="muted">Embedded SourceTextRef; none sentinel is local.</text>
<path d="M 74 372 L 446 372" fill="none" class="arrow" stroke-width="1.5"/>
<line x1="74" y1="365" x2="74" y2="381" class="ruler" stroke-width="1"/>
<text x="74" y="360" font-size="8" class="ruler-text" text-anchor="middle">0</text>
<line x1="198" y1="365" x2="198" y2="381" class="ruler" stroke-width="1"/>
<text x="198" y="360" font-size="8" class="ruler-text" text-anchor="middle">4</text>
<line x1="322" y1="365" x2="322" y2="381" class="ruler" stroke-width="1"/>
<text x="322" y="360" font-size="8" class="ruler-text" text-anchor="middle">8</text>
<line x1="446" y1="365" x2="446" y2="381" class="ruler" stroke-width="1"/>
<text x="446" y="360" font-size="8" class="ruler-text" text-anchor="middle">12</text>
<rect x="74" y="386" width="124" height="48" rx="3" class="source" opacity="0.82"/>
<text x="136.0" y="407" font-size="10" fill="#fff" text-anchor="middle" font-weight="700">source_id</text>
<text x="136.0" y="425" font-size="8" fill="#e5e7eb" text-anchor="middle">u32</text>
<rect x="198" y="386" width="124" height="48" rx="3" class="raw" opacity="0.76"/>
<text x="260.0" y="407" font-size="10" fill="#fff" text-anchor="middle" font-weight="700">offset</text>
<text x="260.0" y="425" font-size="8" fill="#e5e7eb" text-anchor="middle">u32</text>
<rect x="322" y="386" width="124" height="48" rx="3" class="raw" opacity="0.64"/>
<text x="384.0" y="407" font-size="10" fill="#fff" text-anchor="middle" font-weight="700">len</text>
<text x="384.0" y="425" font-size="8" fill="#e5e7eb" text-anchor="middle">u32</text>
<rect x="74" y="458" width="370" height="34" rx="4" class="pad" opacity="0.55"/>
<text x="259" y="480" font-size="8.5" fill="#fff" text-anchor="middle" font-weight="700">none sentinel: source_id = 0xFFFF_FFFF</text>
<rect x="532" y="286" width="504" height="224" rx="6" class="panel" opacity="1"/>
<text x="550" y="316" font-size="13" class="label" font-weight="700">Raw UTF-8 bytes</text>
<text x="550" y="338" font-size="11" class="muted">record_size = 0; ranges are source_text_data byte offsets.</text>
<path d="M 562 372 L 1014 372" fill="none" class="arrow" stroke-width="1.5"/>
<line x1="562" y1="365" x2="562" y2="381" class="ruler" stroke-width="1"/>
<text x="562" y="360" font-size="8" class="ruler-text" text-anchor="middle">0</text>
<line x1="810" y1="365" x2="810" y2="381" class="ruler" stroke-width="1"/>
<text x="810" y="360" font-size="8" class="ruler-text" text-anchor="middle">31</text>
<line x1="1014" y1="365" x2="1014" y2="381" class="ruler" stroke-width="1"/>
<text x="1014" y="360" font-size="8" class="ruler-text" text-anchor="middle">58</text>
<rect x="562" y="386" width="248" height="48" rx="3" class="raw" opacity="0.78"/>
<text x="686.0" y="407" font-size="10" fill="#fff" text-anchor="middle" font-weight="700">source 0 bytes</text>
<text x="686.0" y="425" font-size="8" fill="#e5e7eb" text-anchor="middle">&quot;{ $name :string }&quot;</text>
<rect x="810" y="386" width="204" height="48" rx="3" class="raw" opacity="0.64"/>
<text x="912.0" y="407" font-size="10" fill="#fff" text-anchor="middle" font-weight="700">source 1 bytes</text>
<text x="912.0" y="425" font-size="8" fill="#e5e7eb" text-anchor="middle">&quot;.match {$count}&quot;</text>
<rect x="562" y="458" width="410" height="34" rx="4" class="pad" opacity="0.48"/>
<text x="767" y="480" font-size="8.5" fill="#fff" text-anchor="middle" font-weight="700">enabled section is present even when byte_len = 0</text>
<rect x="44" y="540" width="992" height="144" rx="6" class="panel" opacity="1"/>
<text x="62" y="570" font-size="13" class="label" font-weight="700">Source slice resolution</text>
<text x="62" y="592" font-size="11" class="muted">Resolve SourceRecord.text first; if bytes are absent, bindings may attach identity-verified external text.</text>
<rect x="90" y="624" width="170" height="36" rx="4" class="source" opacity="0.72"/>
<text x="175" y="647" font-size="8.2" fill="#fff" text-anchor="middle" font-weight="700">SourceRecord.text</text>
<rect x="332" y="624" width="170" height="36" rx="4" class="raw" opacity="0.72"/>
<text x="417" y="647" font-size="8.2" fill="#fff" text-anchor="middle" font-weight="700">source_text_data bytes</text>
<rect x="586" y="624" width="170" height="36" rx="4" class="node" opacity="0.72"/>
<text x="671" y="647" font-size="8.2" fill="#fff" text-anchor="middle" font-weight="700">Node/Token span</text>
<rect x="828" y="624" width="170" height="36" rx="4" class="edge" opacity="0.72"/>
<text x="913" y="647" font-size="8.2" fill="#fff" text-anchor="middle" font-weight="700">source slice</text>
<path d="M 260 642 L 332 642" fill="none" class="arrow" stroke-width="1.5" marker-end="url(#arrow)"/>
<path d="M 502 642 L 586 642" fill="none" class="arrow" stroke-width="1.5" marker-end="url(#arrow)"/>
<path d="M 756 642 L 828 642" fill="none" class="arrow" stroke-width="1.5" marker-end="url(#arrow)"/>
<rect x="44" y="710" width="992" height="106" rx="6" class="surface" opacity="1"/>
<text x="62" y="740" font-size="13" class="label" font-weight="700">Alignment / decoder rules</text>
<rect x="78" y="769" width="206" height="34" rx="4" class="pad" opacity="0.72"/>
<text x="181" y="791" font-size="8.5" fill="#fff" text-anchor="middle" font-weight="700">false -&gt; section absent</text>
<rect x="316" y="769" width="206" height="34" rx="4" class="raw" opacity="0.72"/>
<text x="419" y="791" font-size="8.5" fill="#fff" text-anchor="middle" font-weight="700">source bytes not string_data</text>
<rect x="554" y="769" width="206" height="34" rx="4" class="node" opacity="0.72"/>
<text x="657" y="791" font-size="8.5" fill="#fff" text-anchor="middle" font-weight="700">span uses UTF-8 bytes</text>
<rect x="792" y="769" width="206" height="34" rx="4" class="bad" opacity="0.72"/>
<text x="895" y="791" font-size="8.5" fill="#fff" text-anchor="middle" font-weight="700">bad slice -&gt; error</text>
</svg>
